<?xml version="1.0" standalone="no"?>
<!DOCTYPE svg PUBLIC "-//W3C//DTD SVG 20010904//EN"
 "http://www.w3.org/TR/2001/REC-SVG-20010904/DTD/svg10.dtd">
<svg version="1.0" xmlns="http://www.w3.org/2000/svg"
 width="700.000000pt" height="700.000000pt" viewBox="0 0 700.000000 700.000000"
 preserveAspectRatio="xMidYMid meet">
<metadata>
Created by potrace 1.14, written by Peter Selinger 2001-2017
</metadata>
<g transform="translate(0.000000,700.000000) scale(0.100000,-0.100000)"
fill="#000000" stroke="none">
<path d="M2805 6981 c-141 -52 -2662 -1144 -2690 -1165 -81 -62 -125 -178
-106 -281 22 -119 39 -135 429 -412 191 -135 355 -253 365 -262 16 -16 15 -20
-17 -81 -138 -261 -262 -643 -315 -966 -60 -369 -53 -795 19 -1164 120 -610
425 -1193 857 -1640 718 -744 1725 -1104 2753 -984 509 59 991 235 1418 518
l113 74 187 -108 c198 -115 253 -136 331 -124 148 22 252 138 255 284 2 94
-21 142 -139 293 l-104 132 35 40 c75 87 243 315 299 405 448 722 601 1569
435 2400 -126 628 -434 1204 -890 1660 -537 539 -1196 858 -1965 952 -118 14
-629 18 -677 5 -26 -7 -33 0 -157 176 -137 194 -171 227 -257 253 -63 19 -118
17 -179 -5z m115 -241 c10 -5 49 -54 86 -107 38 -54 353 -503 702 -997 349
-494 639 -910 645 -924 10 -21 8 -27 -11 -43 -13 -10 -109 -46 -214 -81 -220
-73 -238 -86 -198 -140 13 -18 269 -340 568 -716 300 -377 547 -692 549 -701
9 -37 -21 -50 -271 -110 -137 -34 -255 -66 -263 -72 -7 -6 -13 -22 -13 -34 0
-16 248 -336 743 -963 409 -516 783 -987 830 -1046 48 -60 87 -116 87 -126 0
-23 -26 -50 -48 -50 -9 0 -73 34 -142 74 -69 41 -902 523 -1852 1072 -1141
659 -1730 1004 -1734 1017 -4 12 1 26 12 38 11 10 118 56 239 104 121 47 227
94 237 105 9 11 14 29 11 39 -3 12 -317 245 -769 571 -644 466 -764 556 -764
576 0 30 0 30 209 122 192 85 210 100 168 146 -20 23 -195 148 -1124 808 -357
253 -376 271 -337 308 11 9 494 221 1074 470 580 250 1168 502 1305 562 138
59 251 108 253 108 2 0 12 -4 22 -10z"/>
</g>
</svg>
